HIERARCHY
ROOT Hips
{
	OFFSET 0.000000 0.000000 0.000000
	CHANNELS 6 Xposition Yposition Zposition Zrotation Yrotation Xrotation
	JOINT LHipJoint
	{
		OFFSET 0.000000 0.000000 0.000000
		CHANNELS 6 Xposition Yposition Zposition Zrotation Yrotation Xrotation
		JOINT LeftHip
		{
			OFFSET -0.673180 -1.611894 -0.014919
			CHANNELS 3 Zrotation Yrotation Xrotation
			JOINT LeftKnee
			{
				OFFSET -0.000000 -0.014856 -7.518231
				CHANNELS 6 Xposition Yposition Zposition Zrotation Yrotation Xrotation
				JOINT LeftAnkle
				{
					OFFSET -0.000000 -0.014554 -7.368488
					CHANNELS 6 Xposition Yposition Zposition Zrotation Yrotation Xrotation
					JOINT LeftToe
					{
						OFFSET -2.102140 -0.001350 -0.681086
						CHANNELS 6 Xposition Yposition Zposition Zrotation Yrotation Xrotation
						End Site
						{
							OFFSET -1.101390 0.000000 0.000000
						}
					}
				}
			}
		}
	}
	JOINT RHipJoint
	{
		OFFSET 0.000000 0.000000 0.000000
		CHANNELS 6 Xposition Yposition Zposition Zrotation Yrotation Xrotation
		JOINT RightHip
		{
			OFFSET -0.673180 1.611894 -0.014919
			CHANNELS 3 Zrotation Yrotation Xrotation
			JOINT RightKnee
			{
				OFFSET -0.000000 0.014856 -7.518231
				CHANNELS 6 Xposition Yposition Zposition Zrotation Yrotation Xrotation
				JOINT RightAnkle
				{
					OFFSET -0.000000 0.014554 -7.368488
					CHANNELS 6 Xposition Yposition Zposition Zrotation Yrotation Xrotation
					JOINT RightToe
					{
						OFFSET -2.102140 0.001351 -0.681086
						CHANNELS 6 Xposition Yposition Zposition Zrotation Yrotation Xrotation
						End Site
						{
							OFFSET -1.101390 0.000000 0.000000
						}
					}
				}
			}
		}
	}
	JOINT lowerback
	{
		OFFSET 0.000000 0.000000 0.000000
		CHANNELS 6 Xposition Yposition Zposition Zrotation Yrotation Xrotation
		JOINT Chest
		{
			OFFSET 0.169810 0.021080 2.075730
			CHANNELS 3 Zrotation Yrotation Xrotation
			JOINT Chest2
			{
				OFFSET 0.031410 -0.050700 2.084390
				CHANNELS 6 Xposition Yposition Zposition Zrotation Yrotation Xrotation
				JOINT lowerneck
				{
					OFFSET 0.000000 0.000000 0.000000
					CHANNELS 6 Xposition Yposition Zposition Zrotation Yrotation Xrotation
					JOINT Neck
					{
						OFFSET -0.313700 0.107310 1.604080
						CHANNELS 3 Zrotation Yrotation Xrotation
						JOINT Head
						{
							OFFSET 0.308220 -0.084110 1.656790
							CHANNELS 6 Xposition Yposition Zposition Zrotation Yrotation Xrotation
							End Site
							{
								OFFSET 0.141460 -0.039110 1.691490
							}
						}
					}
				}
				JOINT LeftCollar
				{
					OFFSET 0.000000 0.000000 0.000000
					CHANNELS 6 Xposition Yposition Zposition Zrotation Yrotation Xrotation
					JOINT LeftShoulder
					{
						OFFSET 0.546940 -2.210152 0.732190
						CHANNELS 3 Zrotation Xrotation Yrotation
						JOINT LeftElbow
						{
							OFFSET -0.000001 -4.208010 0.067693
							CHANNELS 6 Xposition Yposition Zposition Zrotation Xrotation Yrotation
							JOINT LeftWrist
							{
								OFFSET -0.000001 -4.447774 0.107699
								CHANNELS 6 Xposition Yposition Zposition Zrotation Xrotation Yrotation
								JOINT lhand
								{
									OFFSET 0.000000 0.000000 0.000000
									CHANNELS 6 Xposition Yposition Zposition Zrotation Xrotation Yrotation
									JOINT LFingers
									{
										OFFSET -0.000000 -0.572473 -0.002868
										CHANNELS 3 Zrotation Xrotation Yrotation
										End Site
										{
											OFFSET -0.000000 -0.461535 -0.002313
										}
									}
								}
								JOINT LThumb
								{
									OFFSET 0.000000 0.000000 0.000000
									CHANNELS 6 Xposition Yposition Zposition Zrotation Xrotation Yrotation
									End Site
									{
										OFFSET -0.468590 -0.468585 -0.002347
									}
								}
							}
						}
					}
				}
				JOINT RightCollar
				{
					OFFSET 0.000000 0.000000 0.000000
					CHANNELS 6 Xposition Yposition Zposition Zrotation Yrotation Xrotation
					JOINT RightShoulder
					{
						OFFSET 0.546940 2.269392 0.732190
						CHANNELS 3 Zrotation Xrotation Yrotation
						JOINT RightElbow
						{
							OFFSET -0.000001 4.208010 0.067693
							CHANNELS 6 Xposition Yposition Zposition Zrotation Xrotation Yrotation
							JOINT RightWrist
							{
								OFFSET -0.000001 4.447774 0.107699
								CHANNELS 6 Xposition Yposition Zposition Zrotation Xrotation Yrotation
								JOINT rhand
								{
									OFFSET 0.186255 0.100282 0.019922
									CHANNELS 6 Xposition Yposition Zposition Zrotation Xrotation Yrotation
									JOINT RFingers
									{
										OFFSET -0.000000 0.731912 -0.065197
										CHANNELS 3 Zrotation Xrotation Yrotation
										End Site
										{
											OFFSET -0.000000 0.590084 -0.052564
										}
									}
								}
								JOINT RThumb
								{
									OFFSET 0.186255 0.100282 0.019922
									CHANNELS 6 Xposition Yposition Zposition Zrotation Xrotation Yrotation
									End Site
									{
										OFFSET -0.601470 0.599097 -0.053367
									}
								}
							}
						}
					}
				}
			}
		}
	}
}
MOTION
Frames: 4
Frame Time: 0.033333
-85.992790 -0.194131 14.408606 8.936649 -11.997802 -4.559162 -0.000004 0.000001 -0.000001 -0.000001 0.000002 0.000001 14.857871 -11.907167 -4.877362 -0.000012 -0.014854 -7.518224 -8.645351 -21.047458 9.020223 0.000001 -0.014555 -7.368492 -0.903487 -0.492120 -5.752917 -2.102139 -0.001352 -0.681095 0.003630 13.216813 0.589466 -0.000004 0.000001 -0.000001 0.000002 -0.000001 0.000002 20.036911 62.491948 24.427683 -0.000002 0.014853 -7.518221 200.848160 -63.563564 -203.468822 -0.000006 0.014555 -7.368488 -1.692833 2.630312 0.083287 -2.102127 0.001350 -0.681094 0.000018 0.039801 0.000019 -0.000004 0.000001 -0.000002 -16.614331 0.496295 6.227439 -2.235081 -1.943325 -3.118506 0.031412 -0.050699 2.084390 -2.154386 -4.974374 -2.908393 -0.000005 0.000000 -0.000002 1.355291 0.264529 1.190635 0.000003 0.000003 -0.000000 0.308195 -0.084111 1.656788 9.723939 17.346363 3.291386 -0.000005 -0.000000 -0.000004 -1.769903 -1.160188 1.360507 -48.733543 31.652951 49.220071 0.000009 -4.208008 0.067691 -103.427014 0.000011 0.000016 0.000007 -4.447774 0.107702 3.187514 -5.279302 10.168694 -0.000000 0.000004 -0.000001 -0.000003 -0.000002 -0.000001 -0.000001 0.000000 -0.000002 0.000000 0.000003 0.000000 -0.000002 0.000002 -0.000002 -0.000004 -0.000001 -0.000000 0.625690 -0.517294 2.783502 -61.129196 -20.310317 -72.918505 -0.000002 4.208010 0.067696 94.094530 -0.000106 0.000063 -0.000005 4.447775 0.107699 -18.063636 14.362465 7.358051 0.186252 0.100284 0.019921 -0.000001 -0.000002 0.000001 -0.000002 0.000001 0.000001 0.186252 0.100282 0.019921 -0.000003 0.000001 0.000000 
-89.149017 -0.271052 14.816470 9.052537 -12.286695 -3.283217 -0.000009 0.000001 0.000001 -0.000002 0.000002 0.000002 14.440403 -20.207904 -6.890160 0.000001 -0.014857 -7.518224 0.210180 -22.589567 0.850378 0.000004 -0.014553 -7.368493 0.944916 -19.513675 -9.008572 -2.102140 -0.001347 -0.681090 -0.000004 -0.292846 -0.000021 -0.000009 0.000001 0.000001 0.000004 0.000000 0.000001 19.956182 64.192952 24.564249 0.000008 0.014857 -7.518231 251.521552 -81.450354 -257.531272 -0.000004 0.014553 -7.368474 -2.930577 -0.256219 -0.713563 -2.102133 0.001351 -0.681094 0.000016 -0.020384 0.000018 -0.000009 0.000001 -0.000000 -18.192998 3.289059 3.197730 -2.367758 -2.536665 -2.634601 0.031424 -0.050701 2.084389 -2.336847 -6.468224 -2.261650 0.000003 -0.000002 0.000007 1.682884 0.463688 1.249650 0.000002 0.000000 0.000001 0.308220 -0.084111 1.656785 10.993723 15.186337 3.611518 0.000002 -0.000003 0.000005 -1.333628 -1.069964 1.364542 -47.043782 28.380513 44.844754 -0.000001 -4.208007 0.067690 -112.279731 0.000013 0.000021 -0.000011 -4.447777 0.107695 16.909453 -7.134622 19.133887 0.000007 0.000007 -0.000001 0.000002 -0.000001 0.000002 0.000002 -0.000001 -0.000000 0.000008 0.000006 0.000000 0.000005 -0.000001 0.000001 0.000003 -0.000004 0.000009 0.529032 -0.471696 4.311480 -66.866685 -15.817005 -73.976911 -0.000002 4.208012 0.067693 97.631687 -0.000009 0.000070 -0.000005 4.447774 0.107702 -15.083856 15.031274 14.164159 0.186246 0.100281 0.019923 -0.000001 -0.000001 0.000001 -0.000001 0.000002 0.000001 0.186246 0.100281 0.019921 -0.000002 0.000001 -0.000001 
-92.141457 -0.265721 15.135630 8.603198 -12.307994 -3.006349 -0.000007 -0.000000 -0.000004 -0.000002 0.000002 0.000002 6.069831 -21.571010 -3.288077 0.000014 -0.014855 -7.518229 -8.916019 -39.470492 4.418051 -0.000001 -0.014554 -7.368479 0.806838 -22.973270 -3.870894 -2.102137 -0.001351 -0.681084 -0.000005 0.361681 -0.000020 -0.000007 -0.000001 -0.000004 0.000001 -0.000001 -0.000000 21.875844 59.009631 23.989868 0.000015 0.014853 -7.518226 161.422123 -115.661317 -171.710969 0.000002 0.014554 -7.368483 -6.367629 -1.075710 -5.866330 -2.102154 0.001349 -0.681092 0.000018 0.767916 0.000019 -0.000007 -0.000000 -0.000005 -17.871987 3.452210 2.683995 -2.254565 -2.734833 -2.980152 0.031416 -0.050705 2.084388 -2.267067 -6.857755 -2.556660 -0.000005 -0.000001 0.000001 1.714576 0.789326 1.268967 0.000000 0.000005 0.000001 0.308217 -0.084114 1.656792 10.818107 15.207121 4.094764 -0.000005 -0.000002 -0.000001 -2.489518 -1.343163 2.132096 -43.975654 34.040160 35.809172 -0.000007 -4.208009 0.067690 -117.638616 0.000011 0.000036 0.000001 -4.447772 0.107698 24.964951 -8.192245 19.779125 0.000001 -0.000009 -0.000000 0.000002 -0.000000 -0.000000 -0.000003 -0.000002 -0.000000 0.000001 -0.000009 0.000000 0.000001 0.000003 0.000000 -0.000004 -0.000002 0.000003 0.825363 -0.541174 3.885964 -73.392391 -19.994532 -70.863001 0.000000 4.208026 0.067693 97.043191 -0.000068 0.000073 -0.000005 4.447774 0.107700 -19.065107 15.397611 15.744523 0.186244 0.100284 0.019920 -0.000002 0.000001 0.000001 -0.000001 0.000001 0.000000 0.186244 0.100284 0.019920 -0.000002 0.000004 0.000001 
-94.930588 -0.270370 15.367493 8.120286 -11.422136 -2.566057 0.000010 0.000000 -0.000002 -0.000002 0.000004 0.000002 4.201106 -17.046288 -2.252771 0.000001 -0.014856 -7.518226 -21.683033 -63.866852 17.175332 -0.000001 -0.014554 -7.368488 -1.512914 -27.517570 0.488026 -2.102147 -0.001351 -0.681090 -0.000004 -0.050279 -0.000022 0.000010 -0.000000 -0.000002 0.000001 0.000000 -0.000000 14.866790 48.823247 14.672587 0.000008 0.014855 -7.518232 172.345207 -149.513374 -179.913357 0.000001 0.014556 -7.368486 -3.947478 1.139444 -8.910853 -2.102140 0.001352 -0.681083 0.000018 0.868230 0.000019 0.000009 -0.000000 -0.000003 -16.488652 1.623219 2.886884 -2.088677 -2.455881 -3.599236 0.031411 -0.050697 2.084392 -2.080222 -6.162190 -3.286108 -0.000007 -0.000001 0.000004 1.523202 1.310662 1.109900 -0.000000 0.000000 0.000000 0.308222 -0.084109 1.656788 9.884862 16.910577 4.933921 -0.000007 -0.000002 0.000002 -4.260018 -1.761704 3.226304 -34.098640 47.936730 20.984926 0.000008 -4.208008 0.067688 -115.794888 0.000006 0.000028 0.000008 -4.447775 0.107707 19.822597 -7.618408 12.628659 -0.000000 0.000001 0.000003 0.000000 -0.000002 0.000000 -0.000001 -0.000000 -0.000002 0.000000 0.000001 0.000004 0.000001 0.000002 0.000002 -0.000006 -0.000002 0.000005 1.754515 -0.758677 1.871021 -75.422207 -29.252307 -66.403885 0.000001 4.208015 0.067694 94.930723 -0.000067 0.000051 -0.000012 4.447778 0.107699 -20.225621 17.489736 11.360528 0.186250 0.100284 0.019923 -0.000001 -0.000002 0.000001 -0.000001 -0.000001 -0.000000 0.186250 0.100283 0.019922 -0.000002 0.000007 0.000004 
